# xmcd CD database file
#
# Track frame offsets:
#	150
#	16682
#	31372
#	49662
#	65520
#	83900
#	102930
#	118917
#	135210
#	155462
#	172635
#	179797
#
# Disc length: 2592 seconds
#
# Revision: 9
# Processed by: cddbd v1.4PL0 Copyright (c) Steve Scherf et al.
# Submitted via: CDex 1.50Beta7
#
DISCID=910a1e0c
DTITLE=Terry Robb - Stop This World
DYEAR=1996
DGENRE=Blues
TTITLE0=Pretty Baby (Didn't Think I'd Know)
TTITLE1=Nummer Rag ~ Take a Look at That, Baby
TTITLE2=Wait for Me, Baby
TTITLE3=Stop This World
TTITLE4=I Want to be Loved
TTITLE5=Darkest Road, I'm Told (61 Highway)
TTITLE6=Louis Collins
TTITLE7=Lonely Weekends
TTITLE8=Feel Like Goin' Home
TTITLE9=Depot Blues
TTITLE10=Buck Dance II
TTITLE11=Till the End of Time
EXTD=YEAR: 1996
EXTT0=
EXTT1=
EXTT2=
EXTT3=
EXTT4=
EXTT5=
EXTT6=
EXTT7=
EXTT8=
EXTT9=
EXTT10=
EXTT11=
PLAYORDER=
